# Blender 4.4.3
# www.blender.org
o fish_tail
v 0.164789 -0.275640 -0.958635
v -0.006567 -0.681614 -0.879436
v -0.006567 0.719169 -0.798538
v 0.000000 -0.439356 -0.023913
v 0.000000 0.414449 -0.138870
v -0.164789 -0.275640 -0.958635
v -0.119621 -0.268658 -0.160262
v -0.119621 0.275287 -0.215961
v -0.156188 0.404944 -0.879716
v 0.119621 -0.268658 -0.160262
v 0.156188 0.404944 -0.879716
v 0.119621 0.275287 -0.215961
v -0.119621 0.030289 -0.149876
v 0.119621 0.030289 -0.149876
v 0.000000 -0.006981 -0.003460
v 0.160488 0.059877 -0.801146
v -0.160488 0.059877 -0.801146
v 0.004228 0.379748 -1.029774
v 0.004228 0.059877 -0.957206
v 0.004228 -0.275640 -1.110793
v -0.142205 -0.352668 -0.540687
v -0.137904 0.317779 -0.494968
v 0.142205 -0.352668 -0.540687
v 0.137904 0.317779 -0.494968
v -0.003329 0.503570 -0.471238
v -0.003329 -0.521470 -0.451675
v -0.140055 0.041181 -0.530132
v 0.140055 0.041181 -0.530132
vn -0.0000 0.0956 0.9954
vn -0.8986 0.2811 0.3370
vn -0.9174 0.0561 0.3939
vn 0.8028 -0.5697 0.1761
vn 0.9266 -0.2019 0.3174
vn 0.0018 -0.6862 0.7274
vn -0.8338 0.5215 0.1812
vn 0.0025 0.7551 0.6557
vn 0.8220 0.5398 0.1812
vn 0.8981 0.2852 0.3347
vn 0.9457 0.3043 0.1144
vn -0.8146 -0.5518 0.1787
vn -0.9269 -0.1975 0.3192
vn -0.9494 -0.2960 0.1049
vn 0.9174 0.0561 0.3939
vn 0.9980 0.0045 0.0627
vn 0.9978 0.0023 0.0670
vn -0.9978 0.0023 0.0670
vn -0.9492 0.2937 0.1126
vn -0.5716 0.4495 -0.6865
vn -0.6725 0.0923 -0.7344
vn -0.6623 0.1431 -0.7355
vn 0.6914 0.0098 -0.7224
vn 0.7019 0.0960 -0.7058
vn 0.7046 0.0769 -0.7055
vn 0.6315 -0.3965 -0.6663
vn 0.6874 -0.0375 -0.7253
vn 0.6790 0.1560 -0.7173
vn 0.6892 0.1090 -0.7163
vn 0.9453 -0.3092 0.1039
vn -0.6829 0.0975 -0.7240
vn -0.6725 0.0213 -0.7398
vn -0.6856 0.0786 -0.7237
vn -0.6690 -0.0178 -0.7431
vn -0.6200 -0.3760 -0.6887
vn 0.5788 0.4716 -0.6653
vn -0.9980 0.0045 0.0627
vn -0.9827 -0.1840 0.0192
vn -0.9508 0.2691 0.1537
vn -0.8981 -0.4353 0.0631
vn 0.9456 0.2858 0.1554
vn -0.8979 0.3634 0.2483
vn 0.8853 -0.4613 0.0592
vn 0.9801 -0.1977 0.0165
vn 0.8846 0.3935 0.2504
vt 0.522294 0.636027
vt 1.161266 0.440306
vt 0.992497 0.739467
vt 0.471799 1.334672
vt 0.166100 0.991099
vt 0.492844 1.043497
vt 0.619027 -0.856014
vt 0.551744 0.228556
vt -0.081892 0.350455
vt -0.373277 0.419128
vt 0.823728 1.038628
vt 0.974820 1.317992
vt 0.042104 0.670777
vt -0.438979 0.994178
vt -0.198437 0.832478
vt 1.166890 0.931162
vt 1.358960 0.544332
vt 0.686310 -1.940584
vt 0.151353 0.546782
vt 1.556653 0.648358
vt -0.213296 1.500556
vt 0.553820 1.065939
vt 0.450755 1.625848
vt 0.330013 1.539828
vt -0.664662 0.487800
vt -0.023598 1.245828
vt 1.125912 1.597357
vt 1.341283 1.122858
s 1
f 15/1/1 8/2/2 13/3/3
f 26/4/4 10/5/5 4/6/6
f 25/7/7 8/2/2 5/8/8
f 25/7/9 12/9/10 24/10/11
f 26/4/12 7/11/13 21/12/14
f 12/9/10 15/1/1 14/13/15
f 16/14/16 24/10/11 28/15/17
f 27/16/18 8/2/2 22/17/19
f 3/18/20 18/19/21 9/20/22
f 1/21/23 19/22/24 16/14/25
f 2/23/26 20/24/27 1/21/23
f 11/25/28 19/22/24 18/19/29
f 7/11/13 27/16/18 21/12/14
f 23/26/30 16/14/16 28/15/17
f 10/5/5 15/1/1 4/6/6
f 15/1/1 7/11/13 4/6/6
f 10/5/5 28/15/17 14/13/15
f 19/22/31 6/27/32 17/28/33
f 20/24/34 2/23/35 6/27/32
f 18/19/29 3/18/36 11/25/28
f 19/22/31 9/20/22 18/19/21
f 21/12/14 17/28/37 6/27/38
f 17/28/37 22/17/19 9/20/39
f 28/15/17 12/9/10 14/13/15
f 2/23/40 21/12/14 6/27/38
f 11/25/41 25/7/9 24/10/11
f 9/20/39 25/7/7 3/18/42
f 2/23/43 23/26/30 26/4/4
f 15/1/1 5/8/8 8/2/2
f 26/4/4 23/26/30 10/5/5
f 25/7/7 22/17/19 8/2/2
f 25/7/9 5/8/8 12/9/10
f 26/4/12 4/6/6 7/11/13
f 12/9/10 5/8/8 15/1/1
f 16/14/16 11/25/41 24/10/11
f 27/16/18 13/3/3 8/2/2
f 1/21/23 20/24/27 19/22/24
f 11/25/28 16/14/25 19/22/24
f 7/11/13 13/3/3 27/16/18
f 23/26/30 1/21/44 16/14/16
f 10/5/5 14/13/15 15/1/1
f 15/1/1 13/3/3 7/11/13
f 10/5/5 23/26/30 28/15/17
f 19/22/31 20/24/34 6/27/32
f 19/22/31 17/28/33 9/20/22
f 21/12/14 27/16/18 17/28/37
f 17/28/37 27/16/18 22/17/19
f 28/15/17 24/10/11 12/9/10
f 2/23/40 26/4/12 21/12/14
f 11/25/41 3/18/45 25/7/9
f 9/20/39 22/17/19 25/7/7
f 2/23/43 1/21/44 23/26/30
