# Blender 4.4.3
# www.blender.org
o urchin
v 0.000000 -0.557550 0.047097
v 0.402678 -0.249935 0.339656
v -0.153806 -0.249936 0.520471
v -0.497736 -0.249933 0.047097
v -0.153806 -0.249936 -0.426278
v 0.402678 -0.249935 -0.245462
v 0.153806 0.247808 0.520471
v -0.402678 0.247808 0.339656
v -0.402678 0.247808 -0.245462
v 0.153806 0.247808 -0.426278
v 0.497736 0.247806 0.047097
v 0.000000 0.555423 0.047097
v -0.090404 -0.474441 0.325337
v 0.236686 -0.474441 0.219057
v 0.146283 -0.293630 0.497301
v 0.473374 -0.293629 0.047097
v 0.236686 -0.474441 -0.124864
v -0.292562 -0.474440 0.047097
v -0.382968 -0.293629 0.325338
v -0.090404 -0.474441 -0.231144
v -0.382968 -0.293629 -0.231145
v 0.146283 -0.293630 -0.403107
v 0.529251 -0.001064 0.219058
v 0.529251 -0.001064 -0.124865
v 0.159334 0.095563 0.587814
v 0.327095 -0.001064 0.497303
v -0.529251 -0.001064 0.219058
v -0.327095 -0.001064 0.497303
v -0.327095 -0.001064 -0.403110
v -0.529251 -0.001064 -0.124865
v 0.327095 -0.001064 -0.403110
v 0.000000 -0.001064 -0.509390
v 0.382968 0.291501 0.325338
v -0.146283 0.291502 0.497301
v -0.473374 0.291501 0.047097
v -0.146283 0.291502 -0.403107
v 0.382968 0.291501 -0.231145
v 0.090404 0.472314 0.325337
v 0.292562 0.472312 0.047097
v -0.236686 0.472314 0.219057
v -0.236686 0.472314 -0.124864
v 0.090404 0.472314 -0.231144
v -0.159334 0.095563 0.587814
v 0.148768 -0.117260 0.581699
v -0.148768 -0.117260 0.581699
v 0.190635 0.122794 0.629341
v 0.353274 0.000658 0.514936
v -0.353274 0.000658 0.514936
v -0.190635 0.122794 0.629341
v 0.182123 -0.146214 0.621611
v -0.182123 -0.146214 0.621611
v 0.203845 0.134287 0.577210
v 0.384414 0.001385 0.452720
v -0.384414 0.001385 0.452720
v -0.203845 0.134287 0.577210
v 0.196200 -0.158433 0.568799
v -0.196200 -0.158433 0.568799
v 0.094649 -0.951601 0.374280
v 0.703979 -0.647794 0.371922
v -0.247791 -0.951600 0.263015
v -0.247791 -0.951600 -0.097045
v 0.094649 -0.951601 -0.208309
v 0.893278 -0.341502 0.371922
v -0.892512 -0.341502 0.374281
v -0.552840 -0.341503 -0.675827
v 0.550839 -0.341503 -0.677282
v 0.798631 -0.152205 0.663220
v -0.987161 -0.152204 0.082985
v -0.305048 -0.152205 -0.855860
v 0.798631 -0.152205 -0.497250
v 0.399694 0.645666 0.730530
v -0.492342 0.645667 0.663218
v -0.703979 0.645666 -0.205952
v 0.057252 0.645667 -0.675824
v 0.739367 0.645664 -0.097046
v 0.247791 0.949473 -0.097045
v 0.485440 0.784403 -0.269708
v 0.399694 0.645666 -0.564559
v -0.094649 0.949474 -0.208309
v -0.185425 0.784405 -0.487682
v -0.492342 0.645667 -0.497247
v -0.306287 0.949474 0.082985
v -0.600039 0.784404 0.082985
v -0.703979 0.645666 0.371922
v -0.094649 0.949474 0.374280
v -0.185425 0.784405 0.653653
v 0.057252 0.645667 0.841795
v 0.247791 0.949473 0.263015
v 0.485440 0.784403 0.435678
v 0.739367 0.645664 0.263016
v 0.892512 0.339374 -0.208311
v 0.785464 0.184361 -0.487685
v 0.552840 0.339376 -0.675827
v -0.001243 0.339376 -0.855858
v -0.300021 0.184362 -0.840381
v -0.550839 0.339376 -0.677282
v -0.893278 0.339375 -0.205952
v -0.970886 0.184362 0.082985
v -0.893278 0.339375 0.371922
v -0.550839 0.339376 0.843252
v 0.552840 0.339376 0.841797
v 0.785464 0.184361 0.653655
v 0.892512 0.339374 0.374281
v 0.305048 0.150078 -0.855860
v 0.300021 -0.186489 -0.840381
v 0.001243 -0.341504 -0.855858
v -0.798631 0.150078 -0.497250
v -0.785464 -0.186489 -0.487685
v -0.892512 -0.341502 -0.208311
v -0.798631 0.150078 0.663220
v -0.785464 -0.186489 0.653655
v -0.552840 -0.341503 0.841797
v 0.550839 -0.341503 0.843252
v 0.987161 0.150077 0.082985
v 0.970886 -0.186489 0.082985
v 0.893278 -0.341502 -0.205952
v 0.492342 -0.647794 -0.497247
v 0.185425 -0.786532 -0.487682
v -0.057252 -0.647794 -0.675824
v -0.399694 -0.647794 -0.564559
v -0.485440 -0.786531 -0.269708
v -0.739367 -0.647791 -0.097046
v -0.739367 -0.647791 0.263016
v -0.485440 -0.786531 0.435678
v -0.399694 -0.647794 0.730530
v 0.703979 -0.647794 -0.205952
v 0.600039 -0.786531 0.082985
v 0.306287 -0.951601 0.082985
v -0.057252 -0.647794 0.841795
v 0.185425 -0.786532 0.653653
v 0.492342 -0.647794 0.663218
v 0.000000 0.121044 0.587814
v 0.000000 -0.143591 0.581699
v 0.000000 0.148276 0.629341
v 0.000000 -0.172545 0.621611
v 0.000000 0.159769 0.577210
v 0.000000 -0.184764 0.568799
vn -0.3733 -0.2094 0.9037
vn 0.8625 -0.3341 0.3800
vn -0.0839 -0.2954 0.9517
vn -0.9176 -0.3466 0.1946
vn -0.1889 -0.9769 0.1002
vn 0.0743 -0.9800 -0.1846
vn 0.0387 -0.1066 0.9935
vn -0.3727 0.4241 0.8254
vn -0.0974 -0.0933 0.9909
vn 0.2083 -0.9777 0.0257
vn 0.0323 -0.9754 0.2179
vn 0.5982 -0.5748 -0.5584
vn -0.0543 -0.5723 0.8183
vn -0.0481 0.5135 0.8568
vn 0.3797 0.3857 0.8408
vn -0.8043 -0.5743 0.1525
vn -0.3334 -0.5747 -0.7474
vn 0.5694 -0.6304 0.5275
vn -0.3203 -0.6401 0.6983
vn -0.7978 -0.5939 -0.1041
vn -0.1437 -0.5506 -0.8223
vn 0.7191 -0.5770 -0.3872
vn 0.8049 -0.1011 -0.5848
vn 0.9047 -0.1571 0.3960
vn 0.5944 -0.5659 -0.5713
vn -0.3082 -0.0741 -0.9484
vn 0.6266 -0.0832 -0.7749
vn -0.3649 -0.5552 -0.7474
vn -0.9895 -0.1443 -0.0000
vn -0.5455 -0.0794 -0.8343
vn -0.7893 -0.6058 0.1002
vn -0.3020 -0.2124 0.9293
vn -0.9648 -0.1460 0.2186
vn -0.1516 -0.6431 0.7507
vn 0.7948 -0.1867 0.5775
vn -0.1194 -0.1932 0.9739
vn 0.6846 -0.6220 0.3801
vn 0.0715 -0.3088 -0.9484
vn 0.3264 -0.9150 -0.2371
vn -0.4283 -0.3747 -0.8223
vn -0.8889 -0.3284 -0.3195
vn -0.1280 -0.9102 -0.3939
vn -0.8869 -0.4074 0.2179
vn -0.5112 -0.3608 0.7800
vn -0.3871 -0.9220 -0.0000
vn -0.0204 -0.4276 0.9037
vn 0.2359 -0.1458 0.9608
vn 0.5816 -0.3594 0.7298
vn 0.9054 -0.3300 -0.2672
vn -0.2119 -0.2359 0.9484
vn 0.3009 -0.9282 0.2186
vn 0.6409 -0.3798 -0.6671
vn 0.1038 -0.9419 -0.3195
vn 0.8386 -0.5183 0.1678
vn -0.1539 -0.9762 0.1525
vn -0.2645 -0.9450 -0.1922
vn 0.3546 -0.5232 -0.7749
vn 0.1004 -0.9757 0.1946
vn -0.2434 -0.9537 0.1769
vn -0.6182 -0.5224 -0.5873
vn 0.2060 -0.9783 -0.0229
vn 0.0487 -0.9801 -0.1925
vn 0.3134 -0.9496 -0.0000
vn 0.0487 -0.5130 0.8570
vn -0.1744 -0.9792 -0.1041
vn -0.7270 -0.6592 -0.1922
vn -0.2126 -0.7257 0.6543
vn -0.9677 -0.2509 0.0257
vn -0.3850 -0.6229 0.6810
vn 0.5451 -0.7389 0.3961
vn -0.2267 -0.2071 0.9517
vn 0.5225 -0.6274 0.5774
vn 0.5099 -0.7764 -0.3705
vn 0.8185 -0.2274 0.5275
vn -0.0941 -0.6186 0.7800
vn 0.4806 0.1859 0.8570
vn -0.4876 -0.3045 0.8183
vn 0.7000 -0.6622 -0.2672
vn -0.1908 -0.7865 -0.5873
vn 0.7816 -0.2780 -0.5584
vn 0.2549 0.2641 0.9302
vn 0.1020 0.1037 0.9894
vn -0.3446 -0.4032 0.8477
vn -0.0297 0.0963 0.9949
vn -0.0473 -0.5243 0.8502
vn 0.3787 -0.4038 0.8328
vn -0.2792 0.1725 0.9446
vn 0.1352 -0.7501 -0.6474
vn -0.0000 -0.7998 -0.6003
vn -0.0000 -0.8094 -0.5872
vn -0.1161 0.7922 -0.5992
vn -0.0000 0.8286 -0.5598
vn -0.0000 0.8362 -0.5484
vn -0.2564 0.8229 -0.5070
vn -0.1244 0.7914 -0.5985
vn 0.3526 -0.7865 -0.5071
vn 0.1501 -0.7474 -0.6472
vn -0.3526 -0.7865 -0.5071
vn -0.1501 -0.7474 -0.6472
vn -0.3772 -0.7903 -0.4829
vn 0.2564 0.8229 -0.5070
vn 0.1244 0.7914 -0.5985
vn 0.2759 0.8267 -0.4904
vn 0.4527 0.0481 -0.8904
vn 0.1845 0.0374 -0.9821
vn 0.1676 0.0341 -0.9853
vn -0.0000 0.0264 -0.9997
vn -0.4527 0.0481 -0.8904
vn -0.1676 0.0341 -0.9853
vn -0.1845 0.0374 -0.9821
vn -0.8953 -0.0269 -0.4447
vn -0.5183 0.7918 -0.3231
vn -0.3801 0.8750 -0.2999
vn 0.3519 -0.8924 -0.2826
vn -0.0000 -0.9754 -0.2204
vn -0.0000 -0.9766 -0.2153
vn 0.8953 -0.0269 -0.4447
vn 0.5028 -0.8075 -0.3085
vn -0.5028 -0.8075 -0.3085
vn -0.8942 0.0198 -0.4473
vn -0.0000 0.9728 -0.2315
vn -0.0000 0.9743 -0.2254
vn 0.5183 0.7918 -0.3231
vn 0.8942 0.0198 -0.4473
vn 0.6263 -0.4034 -0.6671
vn 0.3020 0.2124 0.9293
vn -0.9098 -0.3718 -0.1846
vn -0.0127 -0.6803 -0.7328
vn 0.7893 0.6058 0.1002
vn -0.7948 0.1867 0.5775
vn -0.1189 -0.4186 -0.9004
vn -0.8049 0.1011 -0.5848
vn 0.8377 -0.3851 -0.3872
vn 0.3082 0.0741 -0.9484
vn 0.6277 -0.3116 0.7134
vn 0.6028 0.3156 -0.7328
vn 0.0204 0.4276 0.9037
vn 0.0550 0.3651 0.9293
vn -0.6409 0.3798 -0.6671
vn -0.8880 0.3470 0.3018
vn 0.4283 0.3747 -0.8223
vn -0.5071 0.3134 -0.8029
vn 0.8869 0.4074 0.2179
vn 0.2434 0.9537 0.1769
vn -0.4293 -0.5727 0.6983
vn -0.3134 0.9496 -0.0000
vn -0.1734 -0.5746 -0.7998
vn -0.1038 0.9419 -0.3195
vn 0.7221 -0.5748 -0.3850
vn 0.2645 0.9450 -0.1922
vn 0.5358 -0.5730 0.6202
vn 0.4175 0.6756 -0.6077
vn -0.8185 0.2274 0.5275
vn 0.7441 0.6442 0.1769
vn -0.7816 0.2780 -0.5584
vn 0.0941 0.6186 0.7800
vn 0.2684 0.2943 -0.9173
vn -0.7075 0.6390 0.3019
vn 0.9677 0.2509 0.0257
vn -0.4504 0.6747 -0.5848
vn 0.2267 0.2071 0.9517
vn -0.8377 0.3851 -0.3872
vn 0.0839 0.2954 0.9517
vn -0.0427 -0.0691 -0.9967
vn -0.5451 0.7389 0.3961
vn -0.7720 0.2786 -0.5713
vn 0.3850 0.6229 0.6810
vn -0.6277 0.3116 0.7134
vn 0.9176 0.3466 0.1946
vn -0.9644 -0.1173 -0.2371
vn 0.2126 0.7257 0.6543
vn -0.7521 0.2230 0.6202
vn 0.7270 0.6592 -0.1922
vn 0.4876 0.3045 0.8183
vn 0.4364 0.4121 -0.7998
vn -0.4806 -0.1859 0.8570
vn 0.6516 0.7586 -0.0000
vn 0.3733 0.2094 0.9037
vn 0.0127 0.6803 -0.7328
vn 0.9098 0.3718 -0.1846
vn -0.6263 0.4034 -0.6671
vn 0.6637 -0.1778 0.7266
vn 0.1908 0.7865 -0.5873
vn 0.9671 0.2532 -0.0229
vn -0.7000 0.6622 -0.2672
vn 0.1189 0.4186 -0.9004
vn -0.8625 0.3341 0.3800
vn 0.9225 -0.1088 -0.3705
vn -0.5099 0.7764 -0.3705
vn 0.3212 0.2936 -0.9004
vn -0.5225 0.6274 0.5774
vn -0.1004 0.9757 0.1946
vn 0.5594 -0.4221 0.7134
vn -0.3546 0.5232 -0.7749
vn 0.5540 0.5147 0.6543
vn -0.2083 0.9777 0.0257
vn 0.8880 -0.3470 0.3018
vn 0.1539 0.9762 0.1525
vn 0.8371 -0.3887 -0.3850
vn -0.8386 0.5183 0.1678
vn 0.7569 0.5215 -0.3939
vn -0.0323 0.9754 0.2179
vn 0.5071 -0.3134 -0.8029
vn 0.1744 0.9792 -0.1041
vn -0.1432 -0.3716 -0.9173
vn -0.0487 0.5130 0.8570
vn -0.1729 0.5234 -0.8343
vn 0.1889 0.9769 0.1002
vn -0.6028 -0.3156 -0.7328
vn -0.0487 0.9801 -0.1925
vn -0.8984 -0.3948 -0.1925
vn -0.2060 0.9783 -0.0229
vn -0.5074 -0.4232 0.7507
vn 0.6182 0.5224 -0.5873
vn -0.4558 0.5141 0.7266
vn -0.0743 0.9800 -0.1846
vn -0.0550 -0.3651 0.9293
vn -0.7221 0.5748 -0.3850
vn 0.8043 0.5743 0.1525
vn -0.7569 -0.5215 -0.3939
vn 0.1280 0.9102 -0.3939
vn -0.8371 0.3887 -0.3850
vn 0.8889 0.3284 -0.3195
vn -0.5358 0.5730 0.6202
vn 0.3334 0.5747 -0.7474
vn -0.5540 -0.5147 0.6543
vn -0.3264 0.9150 -0.2371
vn -0.5594 0.4221 0.7134
vn -0.0715 0.3088 -0.9484
vn 0.4293 0.5727 0.6983
vn -0.5982 0.5748 -0.5584
vn 0.4558 -0.5141 0.7266
vn -0.3009 0.9282 0.2186
vn 0.5074 0.4232 0.7507
vn -0.9054 0.3300 -0.2672
vn 0.8984 0.3948 -0.1925
vn -0.5816 0.3594 0.7298
vn 0.1734 0.5746 -0.7998
vn 0.0543 0.5723 0.8183
vn 0.1729 -0.5234 -0.8343
vn 0.3871 0.9220 -0.0000
vn 0.1432 0.3716 -0.9173
vn 0.5112 0.3608 0.7800
vn 0.3649 0.5552 -0.7474
vn 0.7521 -0.2230 0.6202
vn -0.6266 0.0832 -0.7749
vn 0.9644 0.1173 -0.2371
vn 0.1437 0.5506 -0.8223
vn 0.7075 -0.6390 0.3019
vn -0.5944 0.5659 -0.5713
vn 0.7720 -0.2786 -0.5713
vn -0.9047 0.1571 0.3960
vn 0.0427 0.0691 -0.9967
vn -0.7191 0.5770 -0.3872
vn 0.4504 -0.6747 -0.5848
vn -0.6846 0.6220 0.3801
vn -0.3212 -0.2936 -0.9004
vn 0.1194 0.1932 0.9739
vn -0.9225 0.1088 -0.3705
vn -0.5694 0.6304 0.5275
vn -0.4175 -0.6756 -0.6077
vn -0.2684 -0.2943 -0.9173
vn 0.7978 0.5939 -0.1041
vn -0.6516 -0.7586 -0.0000
vn 0.5455 0.0794 -0.8343
vn -0.4364 -0.4121 -0.7998
vn 0.9895 0.1443 -0.0000
vn 0.1516 0.6431 0.7507
vn -0.9671 -0.2532 -0.0229
vn 0.9648 0.1460 0.2186
vn -0.6637 0.1778 0.7266
vn 0.3203 0.6401 0.6983
vn -0.7441 -0.6442 0.1769
vn 0.3801 0.8750 -0.2999
vn -0.3519 -0.8924 -0.2826
vn 0.1161 0.7922 -0.5992
vn -0.1352 -0.7501 -0.6474
vn -0.2759 0.8267 -0.4904
vn 0.3772 -0.7903 -0.4829
vn -0.0000 0.0231 -0.9997
vt 0.649663 0.582941
vt 0.469046 0.533038
vt 0.586475 0.549103
vt 0.383852 0.459301
vt 0.315488 0.469942
vt 0.337009 0.443098
vt 0.306382 0.384805
vt 0.369356 0.423028
vt 0.395118 0.413858
vt 0.410190 0.449043
vt 0.600785 0.527529
vt 0.660274 0.555123
vt 0.262356 0.297331
vt 0.201368 0.313574
vt 0.227283 0.278491
vt 0.499095 0.146165
vt 0.439665 0.094578
vt 0.718403 0.275283
vt 0.415488 0.373979
vt 0.341746 0.342607
vt 0.387431 0.344740
vt 0.551892 0.467742
vt 0.476704 0.423442
vt 0.529693 0.435638
vt 0.749448 0.544509
vt 0.756753 0.587018
vt 0.209017 0.191153
vt 0.269137 0.259762
vt 0.607547 0.196994
vt 0.775430 0.299410
vt 0.398950 0.320372
vt 0.425956 0.356942
vt 0.549312 0.416683
vt 0.573299 0.453185
vt 0.749838 0.423574
vt 0.693621 0.306770
vt 0.300204 0.149689
vt 0.445438 0.168821
vt 0.396313 0.268621
vt 0.348193 0.207393
vt 0.403832 0.248389
vt 0.532202 0.363146
vt 0.470493 0.313421
vt 0.522849 0.336685
vt 0.688824 0.439786
vt 0.606617 0.394298
vt 0.640973 0.391530
vt 0.640222 0.351756
vt 0.551008 0.322635
vt 0.576380 0.312119
vt 0.604332 0.359260
vt 0.557312 0.359807
vt 0.468275 0.257177
vt 0.534359 0.286472
vt 0.492725 0.297662
vt 0.446397 0.279088
vt 0.473116 0.200624
vt 0.495075 0.243539
vt 0.440772 0.223039
vt 0.362416 0.185182
vt 0.623291 0.263714
vt 0.559212 0.254784
vt 0.515986 0.193378
vt 0.628801 0.240512
vt 0.604739 0.290904
vt 0.664548 0.342921
vt 0.698176 0.412736
vt 0.633528 0.471437
vt 0.646335 0.438237
vt 0.594486 0.423632
vt 0.560779 0.392388
vt 0.473875 0.368626
vt 0.490423 0.349604
vt 0.450251 0.333078
vt 0.418372 0.301115
vt 0.317074 0.265218
vt 0.353223 0.246899
vt 0.300638 0.224785
vt 0.290474 0.179242
vt 0.052128 0.069218
vt 0.293611 0.127666
vt 0.925092 0.663457
vt 0.781299 0.430973
vt 0.796707 0.537882
vt 0.725801 0.458293
vt 0.521907 0.380092
vt 0.497316 0.403849
vt 0.457146 0.387542
vt 0.375136 0.283036
vt 0.354503 0.313167
vt 0.303790 0.298821
vt 0.203828 0.146666
vt 0.163960 0.196432
vt 0.212711 0.456050
vt 0.169839 0.304176
vt 0.438832 0.585735
vt 0.659057 0.604373
vt 0.683582 0.476501
vt 0.650501 0.510467
vt 0.596144 0.489420
vt 0.477129 0.478520
vt 0.499946 0.456966
vt 0.453739 0.439351
vt 0.424300 0.400021
vt 0.389769 0.377368
vt 0.343003 0.377514
vt 0.307247 0.344969
vt 0.251977 0.324552
vt 0.280904 0.393151
vt 0.243913 0.424557
vt 0.543923 0.487408
vt 0.503303 0.511313
vt 0.448979 0.491758
vt 0.309557 0.492688
vt 0.423761 0.539822
vt 0.496154 0.563718
vt 0.183385 0.449122
vt 0.341296 0.541388
vt 0.499207 0.633654
vt 0.339268 0.544849
vt 0.610433 0.193943
vt 0.423056 0.079446
vt 0.518181 0.649640
vt 0.160354 0.440058
vt 0.048894 0.066794
vt 0.797810 0.308439
vt 0.928590 0.665643
vt 0.349090 0.881015
vt 0.426489 0.938775
vt 0.431364 0.811557
vt 0.500000 0.947519
vt 0.650910 0.881015
vt 0.568636 0.811557
vt 0.573511 0.938775
vt 0.537215 0.665976
vt 0.613539 0.190913
vt 0.403723 0.062625
vt 0.823354 0.319201
vt 0.970607 0.698270
vt 0.337268 0.548667
vt 0.137322 0.431358
vt 0.008112 0.037460
vt 0.380464 0.480948
vt 0.559417 0.275757
vt 0.500000 0.802813
s 1
f 2/1/1 14/2/1 59/3/1
f 1/4/2 13/5/2 60/6/2
f 1/4/3 18/7/3 61/8/3
f 1/4/4 20/9/4 62/10/4
f 2/1/5 16/11/5 63/12/5
f 4/13/6 19/14/6 64/15/6
f 34/16/7 43/17/8 7/18/9
f 5/19/10 21/20/10 65/21/10
f 6/22/11 22/23/11 66/24/11
f 2/1/12 23/25/12 67/26/12
f 4/13/13 27/27/13 68/28/13
f 7/18/9 132/29/14 25/30/15
f 5/19/16 29/31/16 69/32/16
f 6/22/17 31/33/17 70/34/17
f 7/18/18 33/35/18 71/36/18
f 8/37/19 34/16/19 72/38/19
f 9/39/20 35/40/20 73/41/20
f 10/42/21 36/43/21 74/44/21
f 11/45/22 37/46/22 75/47/22
f 39/48/23 42/49/23 76/50/23
f 39/48/24 37/46/24 77/51/24
f 37/46/25 10/42/25 78/52/25
f 42/49/26 41/53/26 79/54/26
f 42/49/27 36/43/27 80/55/27
f 36/43/28 9/39/28 81/56/28
f 41/53/29 40/57/29 82/58/29
f 41/53/30 35/40/30 83/59/30
f 35/40/31 8/37/31 84/60/31
f 40/57/32 38/61/32 85/62/32
f 40/57/33 34/16/33 86/63/33
f 34/16/7 7/18/9 87/64/34
f 38/61/35 39/48/35 88/65/35
f 38/61/36 33/35/36 89/66/36
f 33/35/37 11/45/37 90/67/37
f 24/68/38 37/46/38 91/69/38
f 24/68/39 31/33/39 92/70/39
f 31/33/40 10/42/40 93/71/40
f 32/72/41 36/43/41 94/73/41
f 32/72/42 29/31/42 95/74/42
f 29/31/43 9/39/43 96/75/43
f 30/76/44 35/40/44 97/77/44
f 30/76/45 27/27/45 98/78/45
f 27/27/46 8/37/46 99/79/46
f 28/80/47 34/16/7 100/81/48
f 26/82/49 33/35/49 101/83/49
f 7/18/9 25/30/15 26/82/50
f 26/82/51 23/25/51 102/84/51
f 23/25/52 11/45/52 103/85/52
f 31/33/53 32/72/53 104/86/53
f 31/33/54 22/23/54 105/87/54
f 22/23/55 5/19/55 106/88/55
f 29/31/56 30/76/56 107/89/56
f 29/31/57 21/20/57 108/90/57
f 21/20/58 4/13/58 109/91/58
f 27/27/59 28/80/59 110/92/59
f 27/27/60 19/14/60 111/93/60
f 19/14/61 3/94/61 112/95/61
f 15/96/62 2/1/62 113/97/62
f 34/16/7 28/80/47 43/17/8
f 23/25/63 24/68/63 114/98/63
f 23/25/64 16/11/64 115/99/64
f 16/11/65 6/22/65 116/100/65
f 17/101/66 22/23/66 117/102/66
f 17/101/67 20/9/67 118/103/67
f 20/9/68 5/19/68 119/104/68
f 20/9/69 21/20/69 120/105/69
f 20/9/70 18/7/70 121/106/70
f 18/7/71 4/13/71 122/107/71
f 18/7/72 19/14/72 123/108/72
f 18/7/73 13/5/73 124/109/73
f 13/5/74 3/94/74 125/110/74
f 16/11/75 17/101/75 126/111/75
f 16/11/76 14/2/76 127/112/76
f 14/2/77 1/4/77 128/113/77
f 13/5/78 15/96/78 129/114/78
f 13/5/79 14/2/79 130/115/79
f 14/2/80 2/1/80 131/116/80
f 28/80/81 3/94/82 45/117/83
f 3/94/82 15/96/84 45/117/83
f 15/96/84 133/118/85 45/117/83
f 44/119/86 15/96/84 26/82/87
f 44/119/88 135/120/89 133/118/90
f 43/17/91 134/121/92 132/29/93
f 28/80/94 49/122/95 43/17/91
f 26/82/96 50/123/97 44/119/88
f 28/80/98 51/124/99 48/125/100
f 26/82/101 46/126/102 47/127/103
f 28/128/104 43/129/105 45/130/106
f 132/131/107 45/130/106 43/129/105
f 26/132/108 44/133/109 25/134/110
f 47/127/111 56/135/112 50/123/113
f 49/122/114 136/136/115 134/121/116
f 48/125/117 55/137/118 49/122/114
f 47/127/111 52/138/119 53/139/120
f 50/123/113 137/140/121 135/120/122
f 48/125/117 57/141/123 54/142/124
f 1/4/125 14/2/125 58/143/125
f 14/2/126 13/5/126 58/143/126
f 13/5/127 1/4/127 58/143/127
f 14/2/128 16/11/128 59/3/128
f 16/11/129 2/1/129 59/3/129
f 13/5/130 18/7/130 60/6/130
f 18/7/131 1/4/131 60/6/131
f 18/7/132 20/9/132 61/8/132
f 20/9/133 1/4/133 61/8/133
f 20/9/134 17/101/134 62/10/134
f 17/101/135 1/4/135 62/10/135
f 16/11/136 23/25/136 63/12/136
f 23/25/137 2/1/137 63/12/137
f 19/14/138 27/27/138 64/15/138
f 27/27/139 4/13/139 64/15/139
f 21/20/140 29/31/140 65/21/140
f 29/31/141 5/19/141 65/21/141
f 22/23/142 31/33/142 66/24/142
f 31/33/143 6/22/143 66/24/143
f 23/25/144 26/82/144 67/26/144
f 26/82/145 2/1/145 67/26/145
f 27/27/146 30/76/146 68/28/146
f 30/76/147 4/13/147 68/28/147
f 29/31/148 32/72/148 69/32/148
f 32/72/149 5/19/149 69/32/149
f 31/33/150 24/68/150 70/34/150
f 24/68/151 6/22/151 70/34/151
f 33/35/152 38/61/152 71/36/152
f 38/61/153 7/18/153 71/36/153
f 34/16/154 40/57/154 72/38/154
f 40/57/155 8/37/155 72/38/155
f 35/40/156 41/53/156 73/41/156
f 41/53/157 9/39/157 73/41/157
f 36/43/158 42/49/158 74/44/158
f 42/49/159 10/42/159 74/44/159
f 37/46/160 39/48/160 75/47/160
f 39/48/161 11/45/161 75/47/161
f 42/49/162 12/144/162 76/50/162
f 12/144/163 39/48/163 76/50/163
f 37/46/164 42/49/164 77/51/164
f 42/49/165 39/48/165 77/51/165
f 10/42/166 42/49/166 78/52/166
f 42/49/167 37/46/167 78/52/167
f 41/53/168 12/144/168 79/54/168
f 12/144/169 42/49/169 79/54/169
f 36/43/170 41/53/170 80/55/170
f 41/53/171 42/49/171 80/55/171
f 9/39/172 41/53/172 81/56/172
f 41/53/173 36/43/173 81/56/173
f 40/57/174 12/144/174 82/58/174
f 12/144/175 41/53/175 82/58/175
f 35/40/176 40/57/176 83/59/176
f 40/57/177 41/53/177 83/59/177
f 8/37/178 40/57/178 84/60/178
f 40/57/179 35/40/179 84/60/179
f 38/61/180 12/144/180 85/62/180
f 12/144/181 40/57/181 85/62/181
f 34/16/182 38/61/182 86/63/182
f 38/61/183 40/57/183 86/63/183
f 7/18/184 38/61/184 87/64/184
f 38/61/185 34/16/185 87/64/185
f 39/48/186 12/144/186 88/65/186
f 12/144/187 38/61/187 88/65/187
f 33/35/188 39/48/188 89/66/188
f 39/48/189 38/61/189 89/66/189
f 11/45/190 39/48/190 90/67/190
f 39/48/191 33/35/191 90/67/191
f 37/46/192 11/45/192 91/69/192
f 11/45/193 24/68/193 91/69/193
f 31/33/194 37/46/194 92/70/194
f 37/46/195 24/68/195 92/70/195
f 10/42/196 37/46/196 93/71/196
f 37/46/197 31/33/197 93/71/197
f 36/43/198 10/42/198 94/73/198
f 10/42/199 32/72/199 94/73/199
f 29/31/200 36/43/200 95/74/200
f 36/43/201 32/72/201 95/74/201
f 9/39/202 36/43/202 96/75/202
f 36/43/203 29/31/203 96/75/203
f 35/40/204 9/39/204 97/77/204
f 9/39/205 30/76/205 97/77/205
f 27/27/206 35/40/206 98/78/206
f 35/40/207 30/76/207 98/78/207
f 8/37/208 35/40/208 99/79/208
f 35/40/209 27/27/209 99/79/209
f 34/16/210 8/37/210 100/81/210
f 8/37/211 28/80/211 100/81/211
f 33/35/212 7/18/212 101/83/212
f 7/18/9 26/82/50 101/83/213
f 23/25/214 33/35/214 102/84/214
f 33/35/215 26/82/215 102/84/215
f 11/45/216 33/35/216 103/85/216
f 33/35/217 23/25/217 103/85/217
f 32/72/218 10/42/218 104/86/218
f 10/42/219 31/33/219 104/86/219
f 22/23/220 32/72/220 105/87/220
f 32/72/221 31/33/221 105/87/221
f 5/19/222 32/72/222 106/88/222
f 32/72/223 22/23/223 106/88/223
f 30/76/224 9/39/224 107/89/224
f 9/39/225 29/31/225 107/89/225
f 21/20/226 30/76/226 108/90/226
f 30/76/227 29/31/227 108/90/227
f 4/13/228 30/76/228 109/91/228
f 30/76/229 21/20/229 109/91/229
f 28/80/230 8/37/230 110/92/230
f 8/37/231 27/27/231 110/92/231
f 19/14/232 28/80/232 111/93/232
f 28/80/233 27/27/233 111/93/233
f 3/94/82 28/80/81 112/95/234
f 28/80/235 19/14/235 112/95/235
f 2/1/236 26/82/236 113/97/236
f 26/82/87 15/96/84 113/97/237
f 24/68/238 11/45/238 114/98/238
f 11/45/239 23/25/239 114/98/239
f 16/11/240 24/68/240 115/99/240
f 24/68/241 23/25/241 115/99/241
f 6/22/242 24/68/242 116/100/242
f 24/68/243 16/11/243 116/100/243
f 22/23/244 6/22/244 117/102/244
f 6/22/245 17/101/245 117/102/245
f 20/9/246 22/23/246 118/103/246
f 22/23/247 17/101/247 118/103/247
f 5/19/248 22/23/248 119/104/248
f 22/23/249 20/9/249 119/104/249
f 21/20/250 5/19/250 120/105/250
f 5/19/251 20/9/251 120/105/251
f 18/7/252 21/20/252 121/106/252
f 21/20/253 20/9/253 121/106/253
f 4/13/254 21/20/254 122/107/254
f 21/20/255 18/7/255 122/107/255
f 19/14/256 4/13/256 123/108/256
f 4/13/257 18/7/257 123/108/257
f 13/5/258 19/14/258 124/109/258
f 19/14/259 18/7/259 124/109/259
f 3/94/260 19/14/260 125/110/260
f 19/14/261 13/5/261 125/110/261
f 17/101/262 6/22/262 126/111/262
f 6/22/263 16/11/263 126/111/263
f 14/2/264 17/101/264 127/112/264
f 17/101/265 16/11/265 127/112/265
f 1/4/266 17/101/266 128/113/266
f 17/101/267 14/2/267 128/113/267
f 15/96/84 3/94/82 129/114/268
f 3/94/269 13/5/269 129/114/269
f 14/2/270 15/96/270 130/115/270
f 15/96/271 13/5/271 130/115/271
f 2/1/272 15/96/272 131/116/272
f 15/96/273 14/2/273 131/116/273
f 51/124/274 137/140/121 57/141/123
f 46/126/275 136/136/115 52/138/119
f 44/133/109 132/131/107 25/134/110
f 25/30/276 134/121/92 46/126/102
f 45/117/277 135/120/89 51/124/99
f 7/18/9 43/17/8 132/29/14
f 15/96/84 44/119/86 133/118/85
f 44/119/88 50/123/97 135/120/89
f 43/17/91 49/122/95 134/121/92
f 28/80/94 48/125/278 49/122/95
f 26/82/96 47/127/279 50/123/97
f 28/80/98 45/117/277 51/124/99
f 26/82/101 25/30/276 46/126/102
f 132/131/107 133/145/280 45/130/106
f 47/127/111 53/139/120 56/135/112
f 49/122/114 55/137/118 136/136/115
f 48/125/117 54/142/124 55/137/118
f 47/127/111 46/126/275 52/138/119
f 50/123/113 56/135/112 137/140/121
f 48/125/117 51/124/274 57/141/123
f 51/124/274 135/120/122 137/140/121
f 46/126/275 134/121/116 136/136/115
f 44/133/109 133/145/280 132/131/107
f 25/30/276 132/29/93 134/121/92
f 45/117/277 133/118/90 135/120/89
